<svg width="292" height="44" viewBox="0 0 292 44" fill="none" xmlns="http://www.w3.org/2000/svg">
<path fill-rule="evenodd" clip-rule="evenodd" d="M53.66 5.28C53.6436 2.76839 51.6116 0.73636 49.1 0.719997H38C36.7897 0.717334 35.6283 1.19691 34.7726 2.05265C33.9169 2.90839 33.4373 4.0698 33.44 5.28V39.28C33.4563 41.7916 35.4883 43.8236 38 43.84H49.1C51.6026 43.8024 53.6224 41.7827 53.66 39.28V5.28ZM19 21.48C20.0471 20.6286 20.6535 19.3496 20.65 18V5.28C20.6336 2.76839 18.6016 0.73636 16.09 0.719997H0.449951V43.83H16.1C18.6026 43.7924 20.6224 41.7727 20.66 39.27V25.17C20.6275 23.7663 20.0288 22.4354 19 21.48ZM7.83995 8.11H13.2V18.52H7.83995V8.11ZM13.2 25.91H7.83995V36.38H13.2V25.91ZM46.2 8.11H40.85V36.38H46.21L46.2 8.11ZM76.71 25.91L79.71 43.83H87.08L84 25.48C85.5964 24.7589 86.6246 23.1718 86.63 21.42V5.28C86.6379 4.07856 86.1683 2.92316 85.3244 2.06799C84.4805 1.21282 83.3314 0.727927 82.13 0.719997H66.49V43.83H73.88V25.91H76.71ZM79.22 8.11H73.86V18.52H79.22V8.11ZM118.7 5.28C118.684 2.76839 116.652 0.73636 114.14 0.719997H114.1H103C100.503 0.747435 98.4943 2.7826 98.5 5.28V39.28C98.5163 41.7916 100.548 43.8236 103.06 43.84H114.14C116.643 43.8024 118.662 41.7827 118.7 39.28V5.28ZM111.24 8.11H105.88V36.38H111.24V8.11ZM151.71 5.28C151.694 2.76839 149.662 0.73636 147.15 0.719997H131.51V43.84H147.15C149.653 43.8024 151.672 41.7827 151.71 39.28V5.28ZM144.26 8.11H138.9V36.38H144.26V8.11ZM172.28 0.719997H164.89V43.83H172.28V0.719997ZM205.17 0.719997V43.83H197.78L192.36 25V43.83H185V0.719997H192.33L197.75 18.39V0.719997H205.17ZM238.18 23.08C238.164 20.5684 236.132 18.5364 233.62 18.52H225.39V8.11H230.75V15.73L238.2 14V5.28C238.184 2.76839 236.152 0.73636 233.64 0.719997H222.54C221.333 0.722646 220.177 1.20456 219.326 2.05973C218.474 2.9149 217.997 4.07326 218 5.28V21.37C218.003 22.5767 218.485 23.733 219.34 24.5844C220.195 25.4358 221.353 25.9127 222.56 25.91H230.75V36.39H225.39V28.69L218 30.41V39.28C218.016 41.7839 220.036 43.8128 222.54 43.84H233.62C236.123 43.8024 238.142 41.7827 238.18 39.28V23.08ZM265.22 22.22L272.12 43.84H264.67L264.61 43.59L259.07 25.92H258.39V43.83H251V0.719997H258.39V18.52H259L264.67 0.719997H272.18L265.22 22.22ZM291.58 0.719997H284.19V43.83H291.58V0.719997Z" fill="white"/>
</svg>
